PathFileType	4	(X/Y/Z)	/Users/itak/Documents/Research/Walk-IL/dataset/trc/00486_00167.trc
DataRate	CameraRate	NumFrames	NumMarkers	Units	OrigDataRate	OrigDataStartFrame	OrigNumFrames
100.000000	100.000000	4	54	mm	100.000000	124	497
Frame#	Time	RPSI			LPSI			L3			STRN			T10			C7			CLAV			RBAK			LBAK			LSHO			LUPA			LAEL			LAOL			LWTS			LWPS			LFRA			LIFD			LHPS			RSHO			RUPA			RAEL			RAOL			RWTS			RWPS			RFRA			RIFD			RHTS			RHPS			RBHD			LFHD			RFHD			LBHD			LHIP			RHIP			RASI			LASI			LKNE			LTHI			LANK			LTIP			LTOE			LMT1			LMT5			LHEE			RKNE			RTHI			RANK			RTIP			RTOE			RMT1			RMT5			RHEE			LHTS			*53			
		X1	Y1	Z1	X2	Y2	Z2	X3	Y3	Z3	X4	Y4	Z4	X5	Y5	Z5	X6	Y6	Z6	X7	Y7	Z7	X8	Y8	Z8	X9	Y9	Z9	X10	Y10	Z10	X11	Y11	Z11	X12	Y12	Z12	X13	Y13	Z13	X14	Y14	Z14	X15	Y15	Z15	X16	Y16	Z16	X17	Y17	Z17	X18	Y18	Z18	X19	Y19	Z19	X20	Y20	Z20	X21	Y21	Z21	X22	Y22	Z22	X23	Y23	Z23	X24	Y24	Z24	X25	Y25	Z25	X26	Y26	Z26	X27	Y27	Z27	X28	Y28	Z28	X29	Y29	Z29	X30	Y30	Z30	X31	Y31	Z31	X32	Y32	Z32	X33	Y33	Z33	X34	Y34	Z34	X35	Y35	Z35	X36	Y36	Z36	X37	Y37	Z37	X38	Y38	Z38	X39	Y39	Z39	X40	Y40	Z40	X41	Y41	Z41	X42	Y42	Z42	X43	Y43	Z43	X44	Y44	Z44	X45	Y45	Z45	X46	Y46	Z46	X47	Y47	Z47	X48	Y48	Z48	X49	Y49	Z49	X50	Y50	Z50	X51	Y51	Z51	X52	Y52	Z52	X53	Y53	Z53	X54	Y54	Z54	

125	1.24	-1286.286254882812	921.85791015625	-114.4012756347656	-1194.519775390625	910.0437622070312	-223.1383209228516	-1244.697265625	1012.205627441406	-136.9978942871094	-1006.994689941406	1193.59326171875	23.01912879943848	-1250.167358398438	1138.039916992188	-141.5769805908203	-1184.002563476562	1402.725341796875	-86.86051177978516	-1027.537475585938	1307.73583984375	-0.8133981227874756	-1295.431274414062	1289.311767578125	-45.97833633422852	-1162.417724609375	1353.7919921875	-189.1107330322266	-1032.051025390625	1363.981811523438	-201.7689056396484	-1003.071594238281	1243.984375	-293.5385437011719	-998.474365234375	1028.5498046875	-325.2155456542969	-1100.993896484375	1026.54345703125	-304.0867614746094	-982.627197265625	813.6312866210938	-265.4713439941406	-995.8724365234375	808.07666015625	-338.4072570800781	-988.7987670898438	938.4447631835938	-331.4494323730469	-1006.480285644531	653.6446533203125	-284.7925720214844	-1000.808654785156	730.0447998046875	-341.2937316894531	-1215.990600585938	1370.149291992188	84.13610076904297	-1278.978637695312	1313.63916015625	134.9212951660156	-1343.8291015625	1031.643798828125	173.7042083740234	-1361.778930664062	1018.781066894531	109.0187301635742	-1258.83203125	815.0083618164062	191.7339477539062	-1347.156860351562	810.5479736328125	199.6595001220703	-1353.404418945312	973.7388305664062	182.1387481689453	-1278.486450195312	660.1851196289062	197.7437591552734	-1263.989990234375	717.99365234375	208.6873321533203	-1341.59814453125	721.5386352539062	205.6035766601562	-1127.170166015625	1598.127807617188	42.92083740234375	-945.57470703125	1596.44921875	-56.77423858642578	-990.908203125	1600.553588867188	65.65852355957031	-1080.1328125	1598.370483398438	-129.3419647216797	-998.6854858398438	825.2984619140625	-210.2450561523438	-1307.538330078125	816.8099365234375	59.77497863769531	-1180.985717773438	842.470458984375	88.89643096923828	-999.759033203125	862.714599609375	-87.67049407958984	-858.6504516601562	453.17041015625	-64.59548950195312	-884.7208251953125	599.03955078125	-109.0203704833984	-859.2891845703125	41.23209762573242	-72.25288391113281	-831.7857666015625	302.4626159667969	-64.52542114257812	-713.30322265625	57.67242050170898	120.6874465942383	-792.592041015625	55.02234649658203	100.1319274902344	-729.9127197265625	52.790283203125	8.961480140686035	-933.1412963867188	46.40512466430664	-45.28498458862305	-1357.805053710938	444.2079162597656	-22.06296920776367	-1300.203735351562	680.1624145507812	71.51909637451172	-1561.490600585938	76.53831481933594	-171.0169219970703	-1415.766723632812	314.1392211914062	-56.07091522216797	-1356.916137695312	46.92683410644531	-108.5602340698242	-1390.288208007812	58.09275817871094	-166.2826843261719	-1466.065795898438	44.77278518676758	-88.70387268066406	-1590.614501953125	102.607292175293	-241.6897125244141	-979.1358032226562	725.7763061523438	-272.522216796875	nan	nan	nan	
126	1.25	-1277.15966796875	922.8961791992188	-109.7331085205078	-1185.848754882812	911.6080322265625	-218.8279876708984	-1235.244262695312	1013.392944335938	-132.4155883789062	-996.5377197265625	1194.336791992188	26.36287879943848	-1240.639282226562	1139.137939453125	-137.6713256835938	-1173.4228515625	1403.618041992188	-83.57902526855469	-1016.918334960938	1308.486938476562	2.392530918121338	-1284.873413085938	1290.547607421875	-42.18846893310547	-1152.165283203125	1354.59228515625	-185.9038848876953	-1021.516723632812	1364.395141601562	-198.4988250732422	-992.3045654296875	1244.153076171875	-289.8648376464844	-987.6134643554688	1028.5751953125	-320.8722534179688	-1090.375854492188	1026.737060546875	-300.4014282226562	-972.29443359375	813.7698364257812	-260.5001220703125	-985.1229858398438	808.0578002929688	-333.5039672851562	-977.9996337890625	938.459716796875	-326.8191833496094	-996.4393920898438	653.7953491210938	-279.6382751464844	-990.4044189453125	729.933837890625	-336.266845703125	-1204.970092773438	1371.538818359375	87.62682342529297	-1268.11279296875	1315.267456054688	138.4318542480469	-1334.2958984375	1033.385009765625	175.9877471923828	-1351.90771484375	1020.663818359375	111.2057037353516	-1249.38232421875	816.671630859375	194.0792846679688	-1337.81982421875	812.16064453125	201.6499176025391	-1343.97265625	975.4469604492188	184.3393707275391	-1269.01318359375	661.812255859375	199.7126617431641	-1254.57861328125	719.6178588867188	210.8042907714844	-1332.206665039062	723.1368408203125	207.3676452636719	-1116.756225585938	1598.98779296875	45.69002914428711	-935.3875732421875	1597.478881835938	-54.31771850585938	-980.4105224609375	1601.712036132812	68.14630889892578	-1070.0361328125	1598.91015625	-126.6923065185547	-989.8745727539062	827.0650024414062	-206.1476898193359	-1298.15380859375	817.4094848632812	64.10578155517578	-1171.369995117188	843.1543579101562	92.95156860351562	-990.56591796875	864.511474609375	-83.76242065429688	-850.2933959960938	454.2223510742188	-59.71883010864258	-875.4157104492188	601.1128540039062	-103.9617080688477	-858.776123046875	41.62381362915039	-71.83552551269531	-826.1237182617188	302.2885437011719	-61.08290863037109	-712.7417602539062	53.7369384765625	121.7231292724609	-792.2791748046875	53.10975646972656	100.9356536865234	-729.1699829101562	51.21502685546875	9.732619285583496	-932.6302490234375	47.17855834960938	-44.93013000488281	-1350.168823242188	445.2913513183594	-17.08898544311523	-1291.39453125	680.9326171875	75.72581481933594	-1560.170166015625	80.85033416748047	-168.6202850341797	-1410.319702148438	316.4288024902344	-51.69176864624023	-1356.68505859375	46.8380126953125	-108.4767379760742	-1389.687866210938	58.62864303588867	-165.3298187255859	-1465.370239257812	44.7108154296875	-88.04541015625	-1588.675170898438	109.6305160522461	-238.4658966064453	-969.0426635742188	725.781005859375	-267.3053588867188	nan	nan	nan	
127	1.26	-1267.820678710938	924.058837890625	-105.0152435302734	-1176.980834960938	913.2478637695312	-214.4665832519531	-1225.694702148438	1014.740539550781	-127.8801803588867	-985.958740234375	1195.304077148438	29.65897750854492	-1231.018798828125	1140.375854492188	-133.7829132080078	-1162.823364257812	1404.687377929688	-80.28793334960938	-1006.217041015625	1309.457153320312	5.54264497756958	-1274.251708984375	1291.96337890625	-38.29993438720703	-1141.903564453125	1355.546264648438	-182.6775665283203	-1010.988403320312	1365.004516601562	-195.265869140625	-981.4917602539062	1244.537353515625	-286.22705078125	-976.5810546875	1028.793212890625	-316.5246887207031	-1079.576416015625	1027.079223632812	-296.7624206542969	-961.6723022460938	814.1507568359375	-255.3967437744141	-974.05029296875	808.2290649414062	-328.4739990234375	-966.963134765625	938.677001953125	-322.1253051757812	-985.9515991210938	654.1654663085938	-274.2669982910156	-979.5991821289062	730.0108032226562	-331.06884765625	-1193.814697265625	1373.1201171875	91.15699005126953	-1257.069091796875	1317.115234375	142.0396118164062	-1324.616577148438	1035.327880859375	178.3536682128906	-1341.922485351562	1022.762756347656	113.4952545166016	-1239.771850585938	818.5164794921875	196.4505310058594	-1328.311645507812	813.9290771484375	203.6895599365234	-1334.402099609375	977.3634643554688	186.6457366943359	-1259.325927734375	663.6118774414062	201.565673828125	-1244.982421875	721.4066162109375	212.8661804199219	-1322.627685546875	724.884033203125	209.0972137451172	-1106.217529296875	1600.038208007812	48.47080993652344	-925.0862426757812	1598.627685546875	-51.85916519165039	-969.801513671875	1602.98876953125	70.64383697509766	-1059.83544921875	1599.640502929688	-124.0298309326172	-980.84033203125	828.841552734375	-202.0194244384766	-1288.521484375	818.173095703125	68.56237030029297	-1161.499145507812	844.0466918945312	97.05773162841797	-981.10546875	866.3967895507812	-79.84166717529297	-842.2401123046875	455.0797119140625	-54.97399520874023	-866.2553100585938	602.9707641601562	-99.03675079345703	-858.3629760742188	41.99182891845703	-71.45943450927734	-820.7615356445312	302.0229797363281	-57.75969696044922	-712.4149169921875	50.558349609375	122.6092300415039	-792.1124267578125	51.63877868652344	101.6102981567383	-728.6033935546875	50.13573837280273	10.33329772949219	-932.208984375	47.75858688354492	-44.6519775390625	-1342.0205078125	446.4227905273438	-11.63955307006836	-1282.312744140625	681.8644409179688	80.11150360107422	-1558.549926757812	85.43940734863281	-165.9930267333984	-1404.429321289062	318.8361511230469	-46.8485221862793	-1356.496704101562	46.77063751220703	-108.3894958496094	-1388.982421875	59.1912956237793	-164.3306884765625	-1464.62548828125	44.65958023071289	-87.34243011474609	-1586.1923828125	117.0640106201172	-234.8996276855469	-958.5574340820312	726.0471801757812	-261.9092102050781	nan	nan	nan	
128	1.27	-1258.263671875	925.3117065429688	-100.293212890625	-1167.864379882812	914.9271240234375	-210.08642578125	-1216.019775390625	1016.196105957031	-123.42333984375	-975.2867431640625	1196.492553710938	32.91465759277344	-1221.257690429688	1141.719482421875	-129.8976745605469	-1152.238037109375	1405.922485351562	-76.99889373779297	-995.4727172851562	1310.64111328125	8.646030426025391	-1263.59716796875	1293.530151367188	-34.36068725585938	-1131.618041992188	1356.620239257812	-179.4321594238281	-1000.495361328125	1365.800415039062	-192.0818481445312	-970.6723022460938	1245.1201171875	-282.6397094726562	-965.40478515625	1029.193725585938	-312.1842041015625	-1068.604370117188	1027.543334960938	-293.1578674316406	-950.7689208984375	814.7672729492188	-250.1727447509766	-962.6728515625	808.581787109375	-323.3209838867188	-955.7083740234375	939.0863037109375	-317.380126953125	-975.0087280273438	654.735595703125	-268.6705322265625	-968.3598022460938	730.281494140625	-325.6926574707031	-1182.586547851562	1374.864501953125	94.70396423339844	-1245.90478515625	1319.140869140625	145.7171478271484	-1314.790771484375	1037.4345703125	180.8600158691406	-1331.857055664062	1025.035278320312	115.9500732421875	-1230.00439453125	820.5040283203125	198.8708801269531	-1318.622802734375	815.8204345703125	205.8340301513672	-1324.6845703125	979.4496459960938	189.1127166748047	-1249.425659179688	665.5491943359375	203.3154144287109	-1235.196044921875	723.3212890625	214.8837738037109	-1312.855224609375	726.7445068359375	210.8426513671875	-1095.58642578125	1601.280883789062	51.26061248779297	-914.6910400390625	1599.888671875	-49.39536666870117	-959.1173706054688	1604.38134765625	73.16120147705078	-1049.545654296875	1600.568969726562	-121.3470230102539	-971.5409545898438	830.55859375	-197.8333435058594	-1278.667724609375	819.095458984375	73.12973785400391	-1151.41357421875	845.1414794921875	101.2101287841797	-971.3882446289062	868.280517578125	-75.88311004638672	-834.5643310546875	455.654296875	-50.40276718139648	-857.3165283203125	604.411376953125	-94.35956573486328	-858.0332641601562	42.32576370239258	-71.11964416503906	-815.7116088867188	301.6281433105469	-54.54770660400391	-712.2552490234375	48.05029678344727	123.3836364746094	-792.0413208007812	50.51828765869141	102.1836166381836	-728.1803588867188	49.43062210083008	10.80159378051758	-931.8709716796875	48.18053817749023	-44.42881774902344	-1333.323974609375	447.5846862792969	-5.649355411529541	-1272.92333984375	682.9553833007812	84.7091064453125	-1556.552734375	90.32445526123047	-163.1353454589844	-1398.054321289062	321.3467712402344	-41.4952507019043	-1356.371826171875	46.72146987915039	-108.2893295288086	-1388.147338867188	59.77434921264648	-163.2819366455078	-1463.828491210938	44.63576507568359	-86.59230804443359	-1583.029541015625	124.9052810668945	-231.00146484375	-947.6835327148438	726.5753784179688	-256.3399353027344	nan	nan	nan	
